<?xml version="1.0" encoding="utf-8"?>
<!-- Generator: Adobe Illustrator 16.0.0, SVG Export Plug-In . SVG Version: 6.00 Build 0)  -->
<!DOCTYPE svg PUBLIC "-//W3C//DTD SVG 1.1//EN" "http://www.w3.org/Graphics/SVG/1.1/DTD/svg11.dtd">
<svg version="1.1" id="Layer_1" xmlns="http://www.w3.org/2000/svg" xmlns:xlink="http://www.w3.org/1999/xlink" x="0px" y="0px"
	viewBox="0 0 612 175.086" enable-background="new 0 0 612 175.086" xml:space="preserve">
<path fill="#FFFFFF" d="M44.492,137.956c0,10.243-4.161,24.007-16.645,24.007c-6.082,0-9.922-3.201-9.922-9.603
	C17.925,140.196,35.529,137.956,44.492,137.956z M62.417,173.165v-56.654c0-18.564-12.164-24.646-28.808-24.646
	c-16.645,0-30.408,7.042-30.408,25.286h17.925c0-8.002,4.161-12.163,12.163-12.163c9.283,0,11.203,6.722,11.203,14.403v8.002
	C26.567,127.714,0,130.274,0,153.96c0,13.444,10.563,20.806,23.366,20.806c8.642,0,16.644-2.881,20.805-10.883h0.32v9.282H62.417z"
	/>
<path fill="#FFFFFF" d="M117.471,120.672c0-8.322-2.241-16.005-12.163-16.005c-11.843,0-15.364,12.164-15.364,21.767
	c0,20.165,11.843,35.529,32.649,35.529c4.481,0,8.962-0.641,13.443-1.921v11.522c-7.682,2.24-15.364,3.521-23.366,3.521
	c-28.487,0-42.571-17.284-42.571-45.132c0-23.046,12.483-38.09,36.49-38.09c19.525,0,30.408,9.603,30.408,29.128h-19.525
	L117.471,120.672L117.471,120.672z"/>
<path fill="#FFFFFF" d="M188.85,120.672c0-8.322-2.241-16.005-12.164-16.005c-11.843,0-15.364,12.164-15.364,21.767
	c0,20.165,11.843,35.529,32.648,35.529c4.481,0,8.962-0.641,13.443-1.921v11.522c-7.682,2.24-15.364,3.521-23.366,3.521
	c-28.488,0-42.571-17.284-42.571-45.132c0-23.046,12.483-38.09,36.49-38.09c19.525,0,30.408,9.603,30.408,29.128H188.85V120.672z"/>
<path fill="#FFFFFF" d="M261.508,117.15h-29.127c0.96-8.002,7.042-13.765,15.044-13.765
	C256.067,103.387,261.508,108.828,261.508,117.15z M279.113,128.354v-4.48c0-19.524-9.922-32.328-30.408-32.328
	c-23.686,0-34.249,15.044-34.249,37.45c0,26.246,11.843,45.771,40.331,45.771c7.682,0,15.044-0.96,22.406-3.2v-12.804
	c-4.801,1.602-10.243,2.881-15.364,2.881c-17.925,0-30.088-16.645-30.088-33.608h47.372V128.354L279.113,128.354z"/>
<path fill="#FFFFFF" d="M334.167,173.165v-45.451c0-3.842,0.32-14.084-2.88-16.965c-1.281-1.28-3.521-1.601-5.441-1.601
	c-13.443,0-18.886,18.885-18.886,29.768v34.569h-18.564V93.464h18.885v15.044h0.319c4.161-10.243,12.163-16.645,23.688-16.645
	c15.363,0,21.445,12.482,21.445,26.247v55.374h-18.565L334.167,173.165L334.167,173.165z"/>
<path fill="#FFFFFF" d="M391.462,106.268v37.771c0,9.282,0.961,17.925,12.483,17.925c2.881,0,5.762-0.641,8.643-1.281v13.124
	c-5.121,0.96-10.242,1.28-15.364,1.28c-16.323,0-24.325-5.441-24.325-21.766v-47.054h-15.685V93.465h15.685V74.58l18.563-7.682
	v26.566h23.688v12.803H391.462L391.462,106.268z"/>
<path fill="#FFFFFF" d="M468.603,173.165v-15.044h-0.319c-4.161,9.923-12.483,16.645-23.687,16.645
	c-15.363,0-21.445-12.482-21.445-26.247V93.465h18.564v45.451c0,3.842-0.319,14.084,2.881,16.965c1.28,1.28,3.521,1.602,5.441,1.602
	c13.443,0,18.885-18.886,18.885-29.769V93.465h18.564v79.7H468.603z"/>
<path fill="#FFFFFF" d="M517.575,138.276v34.889h-18.564v-79.7h18.564v14.725h0.319c6.081-11.203,12.483-16.646,25.928-16.646
	v19.525C524.617,111.069,517.575,119.392,517.575,138.276z"/>
<path fill="#FFFFFF" d="M594.396,117.15h-29.129c0.961-8.002,7.042-13.765,15.045-13.765
	C588.954,103.387,594.396,108.828,594.396,117.15z M612,128.354v-4.48c0-19.524-9.923-32.328-30.408-32.328
	c-23.686,0-34.249,15.044-34.249,37.45c0,26.246,11.844,45.771,40.331,45.771c7.682,0,15.044-0.96,22.405-3.2v-12.804
	c-4.801,1.602-10.242,2.881-15.363,2.881c-17.925,0-30.088-16.645-30.088-33.608H612V128.354z"/>
<path fill="#FFB500" d="M357.213,0v1.92v11.203c0,0,37.13,14.404,42.571,16.324c-5.441,1.92-42.571,16.324-42.571,16.324v13.123
	l57.615-23.365V23.366L357.213,0z"/>
</svg>
